<svg x="0px" y="0px" viewBox="0 0 512 512"><defs id="defs31"></defs><style type="text/css" id="style2">
        .st10{fill:#47A38C;}
        .st11{fill:#008060;}
        .st12{fill:#9BCDC1;}
</style><path class="st10" d="M388.4,310v183.7c0,6-4.8,10.8-10.8,10.8H132.2c-6,0-10.8-4.8-10.8-10.8V310l-78.5-22.8  c-7-2-11.3-8.9-10.2-16.1l13.7-87.7c2.2-14.2,11.8-26.2,25.2-31.6l103.8-41.2h162.2l57.4,22.8l28,11.1l18.4,7.3  c13.4,5.3,23,17.3,25.2,31.6l13.7,87.7c1.1,7.2-3.3,14-10.2,16.1L388.4,310z" id="path4"></path><path class="st11" d="M368.3,255.9c-14,3.9-23.7,16.7-23.7,31.2v206.6c0,6-4.8,10.8-10.8,10.8h43.7c6,0,10.8-4.8,10.8-10.8V250.3  L368.3,255.9z" id="path6"></path><path class="st11" d="M484.6,271.2l-13.7-87.7c-2.2-14.2-11.8-26.2-25.2-31.6l-18.4-7.3l-28-11.1l-57.4-22.8h-43.7l57.4,22.8l28,11.1  L402,152c13.4,5.3,23,17.3,25.2,31.6l13.7,87.7c1.1,7.2-3.3,14-10.2,16.1L392.8,298v12l81.6-22.8  C481.3,285.2,485.7,278.3,484.6,271.2z" id="path8"></path><g id="g16"><path class="st12" d="M477.1,254.3l-85.7,23.6v33.7L470,287c7.3-2.3,11.7-9.7,10.2-17.1L477.1,254.3z" id="path10" style="fill: rgb(255, 240, 175);"></path><path class="st12" d="M35.8,254.3l85.7,23.6v33.7L43,287c-7.3-2.3-11.7-9.7-10.2-17.1L35.8,254.3z" id="path12" style="fill: rgb(255, 240, 175);"></path><path class="st12" d="M377.1,504.5H132.7c-6.2,0-11.2-5-11.2-11.2v-30.6h266.9v30.6C388.4,499.5,383.3,504.5,377.1,504.5z" id="path14" style="fill: rgb(255, 240, 175);"></path></g><path class="st11" d="M254.9,157.8l64.8-70.6H190.1L254.9,157.8z" id="path18" style="fill: rgb(216, 171, 140);"></path><path class="st12" d="M190.1,87.2l64.8,70.6L228.3,174l-56-67L190.1,87.2z" id="path20" style="fill: rgb(255, 240, 175);"></path><path class="st12" d="M319.6,87.2l-64.8,70.6l26.6,16.2l56-67L319.6,87.2z" id="path22" style="fill: rgb(255, 240, 175);"></path><path d="M113.9,362.3c0,4.1,3.4,7.5,7.5,7.5s7.5-3.4,7.5-7.5c0-24.8,0-101.6,0-125.7c0-4.1-3.4-7.5-7.5-7.5s-7.5,3.4-7.5,7.5v31.5  l-70.2-19.3l10-64.1c1.8-11.6,9.7-21.4,20.6-25.7l98.8-39.2l49.4,59.1c2.4,2.9,6.5,3.5,9.6,1.6l15.2-9.2v80.3c0,4.1,3.4,7.5,7.5,7.5  c4.1,0,7.5-3.4,7.5-7.5v-80.3l15.2,9.2c3.1,1.9,7.2,1.3,9.6-1.6l50.2-60c56.8,22.3,54.8,22.3,57.5,22.3c8.3,0,10.4-11.4,2.8-14.5  l-52.8-21c-0.3-1.3-0.9-2.5-1.8-3.6c-19.1-21.2-17.9-19.9-18.4-20.4c-3.8-3.4-2.8-1.3-60.7-1.9v-7.5c16.5-3.5,29-18.2,29-35.7  c0-20.1-16.4-36.5-36.5-36.5C236.3,0,220,16.4,220,36.5c0,4.1,3.4,7.5,7.5,7.5s7.5-3.4,7.5-7.5c0-11.8,9.6-21.5,21.5-21.5  c11.8,0,21.5,9.6,21.5,21.5S268.4,58,256.5,58c-4.1,0-7.5,3.4-7.5,7.5v14.3c-59.8,0-59.9-1.1-63.4,1.5c-0.9,0.7,0-0.2-18.9,20.8  c-1.2,1.4-1.9,3.1-1.9,4.9l-96,38.1C53,151.3,41.6,165.6,39,182.4L25.3,270c-1.7,10.9,5,21.4,15.5,24.4l73.1,21.2  C113.9,315.6,113.9,362.3,113.9,362.3z M254.9,146.8L228,117.4l28.4-22.1L283,116C272.8,127.2,260.6,140.6,254.9,146.8z   M279.9,164.3l-13.3-8.1c12-13.1,42.4-46.3,53-57.8l8,8.9L279.9,164.3z M293.2,104.9L280,94.7h22.6L293.2,104.9z M232.8,94.7  l-15,11.6l-10.7-11.6H232.8z M190.2,98.4c12.9,14.1,44.5,48.6,53,57.8l-13.3,8.1l-47.7-57L190.2,98.4z M45,280  c-3.3-1-5.4-4.3-4.9-7.7l1.4-8.6l72.5,19.9V300L45,280z" id="path24"></path><path d="M487.6,270l-13.7-87.7c-2.6-16.8-14.1-31.1-29.8-37.4l-18.4-7.3c-3.8-1.5-8.2,0.4-9.7,4.2s0.4,8.2,4.2,9.7l18.4,7.3  c10.9,4.3,18.7,14.2,20.6,25.7l10,64.1L396,268.8v-32.3c0-4.1-3.4-7.5-7.5-7.5s-7.5,3.4-7.5,7.5V455H128.9v-64.8  c0-4.1-3.4-7.5-7.5-7.5s-7.5,3.4-7.5,7.5v103.3c0,10.1,8.2,18.3,18.3,18.3h245.3c10.1,0,18.3-8.2,18.3-18.3v-177l76.2-22.1  C482.6,291.4,489.3,280.9,487.6,270z M132.7,497c-2.1,0-3.8-1.7-3.8-3.8v-23.1h251.9v23.1c0,2.1-1.7,3.7-3.8,3.7L132.7,497  L132.7,497z M467.9,280l-72,20.9v-16.4l75.6-20.8l1.4,8.6C473.3,275.8,471.2,279.1,467.9,280z" id="path26"></path></svg>